<svg id="Layer_1" data-name="Layer 1" xmlns="http://www.w3.org/2000/svg" viewBox="0 0 106.96 139.29"><defs><style>.cls-1{fill:#010101;}</style></defs><path class="cls-1" d="M222,429.81l8.69,7.42a1.81,1.81,0,0,0,2.55-.2h0l7.43-8.69a1.81,1.81,0,0,0-2.75-2.36h0l-4.59,5.37c-2.49-25.33,9.44-42.47,22.3-53.38a50.19,50.19,0,0,0,8.89,2.57c25.78,5.15,55.66-3,62-13.36,3.19-5.17,1.42-8.51.08-10-6.48-7.36-29.93-5.45-51.22,4.18a96.76,96.76,0,0,0-20.5,12.31c-4.35-2.15-8.14-5.39-8.91-10.23-1.82-11.39,14.66-18,30.61-24.37,15.14-6.07,29.45-11.8,29.93-22.11.73-15.73-26.18-18.45-27.33-18.55h-.3a1.81,1.81,0,0,0,0,3.61c.25,0,24.62,2.48,24.05,14.78-.37,8-14.24,13.54-27.66,18.91C258,342.6,240.09,349.75,242.37,364c.81,5.05,4,9.17,9.45,12.2a64.58,64.58,0,0,0-22.15,55.43l-5.35-4.58a1.82,1.82,0,0,0-2.36,2.76Zm54.9-65.17c20.74-9.38,42.29-10.44,47-5.09.44.51,1.82,2.07-.45,5.74-4.17,6.76-19.67,11.75-36,12.88A86.06,86.06,0,0,1,265.18,377a49,49,0,0,1-6.29-1.68A93.63,93.63,0,0,1,276.86,364.64Z" transform="translate(-221.33 -298.38)"/></svg>